# xmcd
#
# Track frame offsets:
#	150
#	15745
#	32397
#	48670
#	62447
#	79975
#	92785
#	110200
#	124900
#	143145
#	160200
#	176290
#
# Disc length: 2599
#
# Revision: 1
# Processed by: cddbd v1.5.1PL0 Copyright (c) Steve Scherf et al.
# Submitted via: CDex 1.51
# Normalized: r0:TDELIM( - ),TSWAP
#
DISCID=9c0a250c
DTITLE=Various Artist - Country Music Television - Sampler '98
DYEAR=1900
DGENRE=Country
TTITLE0=Collin Raye - I Think About You
TTITLE1=Mary Chapin Carpenter - Shut Up And Kiss Me
TTITLE2=The Kinleys - Please
TTITLE3=Sons Of The Desert - Whatever Comes First
TTITLE4=Dixie Chicks - I Can Love You Better
TTITLE5=Patty Loveless - I Try To Think About Elvis
TTITLE6=Ty Herndon - Living In A Moment
TTITLE7=Ricochet - He Left A Lot To Be Desired
TTITLE8=Mary Chapin Carpenter - He Thinks He'll Keep Her
TTITLE9=Sons Of The Desert - Hand Of Fate
TTITLE10=The Kinleys - Just Between You And Me
TTITLE11=Patty Loveless - You Don't Seem To Miss Me
EXTD=
EXTT0=
EXTT1=
EXTT2=
EXTT3=
EXTT4=
EXTT5=
EXTT6=
EXTT7=
EXTT8=
EXTT9=
EXTT10=
EXTT11=
PLAYORDER=
